# xmcd
#
# Track frame offsets: 
#        150
#        18667
#        39697
#        61211
#        78162
#        95742
#        116946
#        136287
#        152542
#        171590
#        189461
#
# Disc length: 2736 seconds
#
# Revision: 2
# Processed by: cddbd v1.5.2PL0 Copyright (c) Steve Scherf et al.
# Submitted via: ExactAudioCopyFreeDBPlugin 1.0
#
DISCID=950aae0b
DTITLE=群星 - DTS ES 正品 纯真年代
DYEAR=2005
DGENRE=Acid
TTITLE0=同一首歌
TTITLE1=让我们荡起双桨
TTITLE2=月光下的凤尾竹
TTITLE3=哎哟，妈妈
TTITLE4=三月里的小雨
TTITLE5=美丽的梭罗河
TTITLE6=军港之夜
TTITLE7=远飞的大雁
TTITLE8=故乡的亲人
TTITLE9=友谊地久天长
TTITLE10=在那银色的月光下
EXTD=
EXTT0=
EXTT1=
EXTT2=
EXTT3=
EXTT4=
EXTT5=
EXTT6=
EXTT7=
EXTT8=
EXTT9=
EXTT10=
PLAYORDER=
